<svg width="46" height="46" viewBox="0 0 46 46" fill="none" xmlns="http://www.w3.org/2000/svg">
<path d="M3.83331 5.75L4.34123 5.91867C6.87123 6.762 8.13623 7.18367 8.85881 8.188C9.58331 9.19233 9.58331 10.5263 9.58331 13.1924V18.2083C9.58331 23.6287 9.58331 26.3408 11.2681 28.0236C12.9509 29.7083 15.663 29.7083 21.0833 29.7083H36.4166" stroke="#F8F8F8" stroke-width="2" stroke-linecap="round"/>
<path d="M9.58331 11.5H31.5291C35.4679 11.5 37.4382 11.5 38.2892 12.7918C39.1421 14.0856 38.3659 15.8949 36.8134 19.5155L35.9931 21.4322C35.2686 23.1227 34.9063 23.966 34.1876 24.4413C33.4669 24.9167 32.5469 24.9167 30.7088 24.9167H9.58331M14.375 34.5C15.1375 34.5 15.8687 34.8029 16.4079 35.3421C16.9471 35.8812 17.25 36.6125 17.25 37.375C17.25 38.1375 16.9471 38.8688 16.4079 39.4079C15.8687 39.9471 15.1375 40.25 14.375 40.25C13.6125 40.25 12.8812 39.9471 12.342 39.4079C11.8029 38.8688 11.5 38.1375 11.5 37.375C11.5 36.6125 11.8029 35.8812 12.342 35.3421C12.8812 34.8029 13.6125 34.5 14.375 34.5ZM31.625 34.5C32.3875 34.5 33.1187 34.8029 33.6579 35.3421C34.1971 35.8812 34.5 36.6125 34.5 37.375C34.5 38.1375 34.1971 38.8688 33.6579 39.4079C33.1187 39.9471 32.3875 40.25 31.625 40.25C30.8625 40.25 30.1312 39.9471 29.592 39.4079C29.0529 38.8688 28.75 38.1375 28.75 37.375C28.75 36.6125 29.0529 35.8812 29.592 35.3421C30.1312 34.8029 30.8625 34.5 31.625 34.5Z" stroke="#F8F8F8" stroke-width="2"/>
</svg>
