<svg id="visual" viewBox="0 0 540 540" width="100%" height="100%" preserveAspectRatio="none"
    xmlns="http://www.w3.org/2000/svg" xmlns:xlink="http://www.w3.org/1999/xlink" version="1.1">
    <path
        d="M0 174L18 176.7C36 179.3 72 184.7 108 192.7C144 200.7 180 211.3 216 208.7C252 206 288 190 324 181C360 172 396 170 432 171.8C468 173.7 504 179.3 522 182.2L540 185L540 0L522 0C504 0 468 0 432 0C396 0 360 0 324 0C288 0 252 0 216 0C180 0 144 0 108 0C72 0 36 0 18 0L0 0Z"
        fill="#5301ba"></path>
    <path
        d="M0 325L18 319.7C36 314.3 72 303.7 108 298.3C144 293 180 293 216 297.5C252 302 288 311 324 322.7C360 334.3 396 348.7 432 354.8C468 361 504 359 522 358L540 357L540 183L522 180.2C504 177.3 468 171.7 432 169.8C396 168 360 170 324 179C288 188 252 204 216 206.7C180 209.3 144 198.7 108 190.7C72 182.7 36 177.3 18 174.7L0 172Z"
        fill="#6100dc"></path>
    <path
        d="M0 428L18 429.7C36 431.3 72 434.7 108 437.3C144 440 180 442 216 430.3C252 418.7 288 393.3 324 394.2C360 395 396 422 432 434.7C468 447.3 504 445.7 522 444.8L540 444L540 355L522 356C504 357 468 359 432 352.8C396 346.7 360 332.3 324 320.7C288 309 252 300 216 295.5C180 291 144 291 108 296.3C72 301.7 36 312.3 18 317.7L0 323Z"
        fill="#7000ff"></path>
    <path
        d="M0 465L18 471.3C36 477.7 72 490.3 108 496.7C144 503 180 503 216 495.8C252 488.7 288 474.3 324 472.5C360 470.7 396 481.3 432 489.5C468 497.7 504 503.3 522 506.2L540 509L540 442L522 442.8C504 443.7 468 445.3 432 432.7C396 420 360 393 324 392.2C288 391.3 252 416.7 216 428.3C180 440 144 438 108 435.3C72 432.7 36 429.3 18 427.7L0 426Z"
        fill="#8e42ff"></path>
    <path
        d="M0 541L18 541C36 541 72 541 108 541C144 541 180 541 216 541C252 541 288 541 324 541C360 541 396 541 432 541C468 541 504 541 522 541L540 541L540 507L522 504.2C504 501.3 468 495.7 432 487.5C396 479.3 360 468.7 324 470.5C288 472.3 252 486.7 216 493.8C180 501 144 501 108 494.7C72 488.3 36 475.7 18 469.3L0 463Z"
        fill="#a667ff"></path>
</svg>