<svg width="24" height="22" viewBox="0 0 24 22" fill="none" xmlns="http://www.w3.org/2000/svg">
    <path
        d="M11.0837 1.96654C10.49 1.3471 9.77749 0.853703 8.98879 0.515823C8.2001 0.177942 7.35138 0.00251605 6.49336 2.6867e-05C5.63534 -0.00246231 4.78562 0.168036 3.99498 0.501335C3.20434 0.834634 2.489 1.32389 1.8917 1.93988C-0.641637 4.53988 -0.628304 8.76388 1.91836 11.3719L11.3317 21.0332C11.721 21.4332 12.3557 21.4332 12.745 21.0332L22.113 11.4279C23.3288 10.1583 24.0053 8.46698 24.0003 6.70917C23.9953 4.95136 23.3093 3.26388 22.0864 2.00121C21.4922 1.38104 20.779 0.887099 19.9895 0.548925C19.2 0.210751 18.3503 0.0352954 17.4915 0.0330548C16.6326 0.0308143 15.7821 0.201834 14.9908 0.535885C14.1995 0.869935 13.4838 1.36015 12.8864 1.97721L11.9904 2.89721L11.0837 1.96654Z"
        fill="#ff0000" fill-opacity="0.7" />
</svg>