<svg width="146" height="108" viewBox="0 0 146 108" fill="none" xmlns="http://www.w3.org/2000/svg">
<g filter="url(#filter0_di_7_107)">
<g style="mix-blend-mode:luminosity">
<path d="M124.706 76.6212C128.255 75.2442 129.949 70.7247 128.458 66.5415C126.963 62.3182 122.847 60.0165 119.298 61.3975C115.746 62.7786 114.048 67.2941 115.543 71.4813C117.037 75.6645 121.153 78.0063 124.702 76.6252L124.706 76.6212ZM79.4575 66.5575C80.9485 70.7407 79.2545 75.2602 75.7055 76.6413C72.153 77.9783 68.037 75.6805 66.5425 71.4933C65.0515 67.3101 66.7455 62.7506 70.2945 61.4095C73.847 60.0285 77.963 62.3303 79.4575 66.5575Z" fill="white"/>
</g>
<g style="mix-blend-mode:luminosity">
<path d="M139.535 75.5004V73.0345H139.546V65.0123C139.546 64.8482 139.563 64.7721 139.566 64.7521C139.626 64.6317 139.696 64.519 139.777 64.4159C139.892 64.2557 140.028 64.0956 140.259 63.8314L140.326 63.7513C141.243 62.6905 142.972 60.693 143 57.0782V56.9821C142.997 54.8689 142.263 52.8429 140.958 51.3471C139.653 49.8513 137.883 49.0074 136.035 49H104.465C104.08 49 103.705 49.036 103.335 49.1041C100.113 49.5574 97.1277 51.2716 94.8855 53.9558C94.5775 54.2921 94.2905 54.6203 94.0455 54.9005L94.0315 54.9166C93.23 55.8293 92.8275 56.2616 92.376 56.5578C92.026 56.786 91.5115 57.0222 90.5105 57.0222C89.443 57.0222 88.925 56.782 88.596 56.5658C88.1585 56.2856 87.7665 55.8653 86.9475 54.9206L86.93 54.9005C86.6605 54.5923 86.3455 54.224 85.9955 53.8477C83.7825 51.2469 80.8651 49.5792 77.718 49.1161C77.3273 49.0387 76.9315 48.9999 76.535 49H44.965C41.08 49 38 52.6428 38 56.9982V57.0062C38 60.677 39.785 62.7065 40.723 63.7714L40.793 63.8514C41.031 64.1196 41.1745 64.2838 41.297 64.4439C41.38 64.5507 41.4528 64.6675 41.514 64.7921C41.5309 64.8747 41.538 64.9596 41.535 65.0443V65.5527C41.5205 65.8794 41.5135 66.2064 41.514 66.5335V75.5004C41.514 89.1829 50.509 101 62.2795 101H69.185C81.19 101 90.5 88.9707 90.5 74.8999C90.5 88.9707 99.789 100.96 111.804 100.96H118.717C130.435 100.96 139.535 89.259 139.535 75.5004ZM132.51 75.4604C132.51 85.0677 126.438 93.0539 118.686 93.0539H111.77C103.755 93.0539 97.5245 84.8276 97.5245 74.8599V66.5335C97.5525 61.2895 100.689 57.0062 104.92 57.0062H125.08C129.315 57.0062 132.51 61.2895 132.51 66.5335V75.4604ZM69.185 93.0499H62.311C54.5655 93.0499 48.5105 85.1078 48.5105 75.5004V66.5335C48.5105 61.2895 51.6955 57.0062 55.92 57.0062H76.0905C80.3185 57.0062 83.521 61.2895 83.521 66.5335V74.8999C83.521 84.8276 77.221 93.0499 69.185 93.0499Z" fill="white"/>
</g>
<path d="M17.2 40H13.05L3.45 12.5H7.4L15.25 36.55L23.2 12.5H26.8L17.2 40ZM33.3778 23.5H35.7778L41.4478 40H39.2278L37.6678 35.17H31.3678L29.8078 40H27.7378L33.3778 23.5ZM31.9378 33.46H37.0978L34.4878 25.57L31.9378 33.46ZM45.7762 40H43.7962V23.5H46.3162L55.2863 37.33V23.5H57.3262V40H54.7762L45.7762 26.11V40ZM63.0028 40H61.0228V23.5H63.5428L72.5128 37.33V23.5H74.5528V40H72.0028L63.0028 26.11V40ZM89.7094 23.5L84.0694 32.17V40H82.0894V32.17L76.6294 23.5H78.9694L83.1994 30.28L87.4594 23.5H89.7094Z" fill="white"/>
</g>
<defs>
<filter id="filter0_di_7_107" x="0.450012" y="12.5" width="145.55" height="95.5" filterUnits="userSpaceOnUse" color-interpolation-filters="sRGB">
<feFlood flood-opacity="0" result="BackgroundImageFix"/>
<feColorMatrix in="SourceAlpha" type="matrix" values="0 0 0 0 0 0 0 0 0 0 0 0 0 0 0 0 0 0 127 0" result="hardAlpha"/>
<feOffset dy="4"/>
<feGaussianBlur stdDeviation="1.5"/>
<feComposite in2="hardAlpha" operator="out"/>
<feColorMatrix type="matrix" values="0 0 0 0 0 0 0 0 0 0 0 0 0 0 0 0 0 0 0.25 0"/>
<feBlend mode="normal" in2="BackgroundImageFix" result="effect1_dropShadow_7_107"/>
<feBlend mode="normal" in="SourceGraphic" in2="effect1_dropShadow_7_107" result="shape"/>
<feColorMatrix in="SourceAlpha" type="matrix" values="0 0 0 0 0 0 0 0 0 0 0 0 0 0 0 0 0 0 127 0" result="hardAlpha"/>
<feOffset dy="4"/>
<feGaussianBlur stdDeviation="1"/>
<feComposite in2="hardAlpha" operator="arithmetic" k2="-1" k3="1"/>
<feColorMatrix type="matrix" values="0 0 0 0 0 0 0 0 0 0 0 0 0 0 0 0 0 0 0.25 0"/>
<feBlend mode="normal" in2="shape" result="effect2_innerShadow_7_107"/>
</filter>
</defs>
</svg>
