<svg width="38" height="38" viewBox="0 0 38 38" fill="none" xmlns="http://www.w3.org/2000/svg">
<path d="M9.50001 11.0833H17.4167C17.8366 11.0833 18.2393 11.2502 18.5363 11.5471C18.8332 11.844 19 12.2468 19 12.6667C19 13.0866 18.8332 13.4893 18.5363 13.7863C18.2393 14.0832 17.8366 14.25 17.4167 14.25H9.50001C9.08008 14.25 8.67735 14.0832 8.38042 13.7863C8.08349 13.4893 7.91667 13.0866 7.91667 12.6667C7.91667 12.2468 8.08349 11.844 8.38042 11.5471C8.67735 11.2502 9.08008 11.0833 9.50001 11.0833ZM20.5833 23.75H28.5C28.9199 23.75 29.3227 23.9168 29.6196 24.2138C29.9165 24.5107 30.0833 24.9134 30.0833 25.3333C30.0833 25.7533 29.9165 26.156 29.6196 26.4529C29.3227 26.7499 28.9199 26.9167 28.5 26.9167H20.5833C20.1634 26.9167 19.7607 26.7499 19.4638 26.4529C19.1668 26.156 19 25.7533 19 25.3333C19 24.9134 19.1668 24.5107 19.4638 24.2138C19.7607 23.9168 20.1634 23.75 20.5833 23.75ZM9.50001 17.4167H28.5C28.9199 17.4167 29.3227 17.5835 29.6196 17.8804C29.9165 18.1774 30.0833 18.5801 30.0833 19C30.0833 19.4199 29.9165 19.8227 29.6196 20.1196C29.3227 20.4165 28.9199 20.5833 28.5 20.5833H9.50001C9.08008 20.5833 8.67735 20.4165 8.38042 20.1196C8.08349 19.8227 7.91667 19.4199 7.91667 19C7.91667 18.5801 8.08349 18.1774 8.38042 17.8804C8.67735 17.5835 9.08008 17.4167 9.50001 17.4167Z" fill="#F8F8F8"/>
</svg>
