<svg id="visual" viewBox="0 0 540 1200" preserveAspectRatio="none" width="540" height="1200" xmlns="http://www.w3.org/2000/svg" xmlns:xlink="http://www.w3.org/1999/xlink" version="1.1"><path d="M399 1200L404.3 1181.8C409.7 1163.7 420.3 1127.3 413 1091C405.7 1054.7 380.3 1018.3 361.5 982C342.7 945.7 330.3 909.3 334.8 873C339.3 836.7 360.7 800.3 382.2 764C403.7 727.7 425.3 691.3 420.8 654.8C416.3 618.3 385.7 581.7 387.5 545.2C389.3 508.7 423.7 472.3 438.2 436C452.7 399.7 447.3 363.3 438.3 327C429.3 290.7 416.7 254.3 396.8 218C377 181.7 350 145.3 353.7 109C357.3 72.7 391.7 36.3 408.8 18.2L426 0L540 0L540 18.2C540 36.3 540 72.7 540 109C540 145.3 540 181.7 540 218C540 254.3 540 290.7 540 327C540 363.3 540 399.7 540 436C540 472.3 540 508.7 540 545.2C540 581.7 540 618.3 540 654.8C540 691.3 540 727.7 540 764C540 800.3 540 836.7 540 873C540 909.3 540 945.7 540 982C540 1018.3 540 1054.7 540 1091C540 1127.3 540 1163.7 540 1181.8L540 1200Z" fill="#540494"></path><path d="M318 1200L318 1181.8C318 1163.7 318 1127.3 310.7 1091C303.3 1054.7 288.7 1018.3 270.7 982C252.7 945.7 231.3 909.3 238.7 873C246 836.7 282 800.3 304.5 764C327 727.7 336 691.3 322.5 654.8C309 618.3 273 581.7 275.7 545.2C278.3 508.7 319.7 472.3 343.8 436C368 399.7 375 363.3 374 327C373 290.7 364 254.3 339.8 218C315.7 181.7 276.3 145.3 281.8 109C287.3 72.7 337.7 36.3 362.8 18.2L388 0L427 0L409.8 18.2C392.7 36.3 358.3 72.7 354.7 109C351 145.3 378 181.7 397.8 218C417.7 254.3 430.3 290.7 439.3 327C448.3 363.3 453.7 399.7 439.2 436C424.7 472.3 390.3 508.7 388.5 545.2C386.7 581.7 417.3 618.3 421.8 654.8C426.3 691.3 404.7 727.7 383.2 764C361.7 800.3 340.3 836.7 335.8 873C331.3 909.3 343.7 945.7 362.5 982C381.3 1018.3 406.7 1054.7 414 1091C421.3 1127.3 410.7 1163.7 405.3 1181.8L400 1200Z" fill="#6403af"></path><path d="M231 1200L237.3 1181.8C243.7 1163.7 256.3 1127.3 253.7 1091C251 1054.7 233 1018.3 213.2 982C193.3 945.7 171.7 909.3 182.5 873C193.3 836.7 236.7 800.3 261.8 764C287 727.7 294 691.3 281.3 654.8C268.7 618.3 236.3 581.7 231 545.2C225.7 508.7 247.3 472.3 269.8 436C292.3 399.7 315.7 363.3 316.5 327C317.3 290.7 295.7 254.3 273.2 218C250.7 181.7 227.3 145.3 233.7 109C240 72.7 276 36.3 294 18.2L312 0L389 0L363.8 18.2C338.7 36.3 288.3 72.7 282.8 109C277.3 145.3 316.7 181.7 340.8 218C365 254.3 374 290.7 375 327C376 363.3 369 399.7 344.8 436C320.7 472.3 279.3 508.7 276.7 545.2C274 581.7 310 618.3 323.5 654.8C337 691.3 328 727.7 305.5 764C283 800.3 247 836.7 239.7 873C232.3 909.3 253.7 945.7 271.7 982C289.7 1018.3 304.3 1054.7 311.7 1091C319 1127.3 319 1163.7 319 1181.8L319 1200Z" fill="#7400ca"></path><path d="M123 1200L133 1181.8C143 1163.7 163 1127.3 162.2 1091C161.3 1054.7 139.7 1018.3 123.3 982C107 945.7 96 909.3 105 873C114 836.7 143 800.3 167.3 764C191.7 727.7 211.3 691.3 208.7 654.8C206 618.3 181 581.7 167.5 545.2C154 508.7 152 472.3 166.3 436C180.7 399.7 211.3 363.3 215.8 327C220.3 290.7 198.7 254.3 174.3 218C150 181.7 123 145.3 123 109C123 72.7 150 36.3 163.5 18.2L177 0L313 0L295 18.2C277 36.3 241 72.7 234.7 109C228.3 145.3 251.7 181.7 274.2 218C296.7 254.3 318.3 290.7 317.5 327C316.7 363.3 293.3 399.7 270.8 436C248.3 472.3 226.7 508.7 232 545.2C237.3 581.7 269.7 618.3 282.3 654.8C295 691.3 288 727.7 262.8 764C237.7 800.3 194.3 836.7 183.5 873C172.7 909.3 194.3 945.7 214.2 982C234 1018.3 252 1054.7 254.7 1091C257.3 1127.3 244.7 1163.7 238.3 1181.8L232 1200Z" fill="#8830d3"></path><path d="M0 1200L0 1181.8C0 1163.7 0 1127.3 0 1091C0 1054.7 0 1018.3 0 982C0 945.7 0 909.3 0 873C0 836.7 0 800.3 0 764C0 727.7 0 691.3 0 654.8C0 618.3 0 581.7 0 545.2C0 508.7 0 472.3 0 436C0 399.7 0 363.3 0 327C0 290.7 0 254.3 0 218C0 181.7 0 145.3 0 109C0 72.7 0 36.3 0 18.2L0 0L178 0L164.5 18.2C151 36.3 124 72.7 124 109C124 145.3 151 181.7 175.3 218C199.7 254.3 221.3 290.7 216.8 327C212.3 363.3 181.7 399.7 167.3 436C153 472.3 155 508.7 168.5 545.2C182 581.7 207 618.3 209.7 654.8C212.3 691.3 192.7 727.7 168.3 764C144 800.3 115 836.7 106 873C97 909.3 108 945.7 124.3 982C140.7 1018.3 162.3 1054.7 163.2 1091C164 1127.3 144 1163.7 134 1181.8L124 1200Z" fill="#9b4ddc"></path></svg>