<svg id="visual" viewBox="0 0 540 960" preserveAspectRatio="none" width="540" height="960" xmlns="http://www.w3.org/2000/svg"
    xmlns:xlink="http://www.w3.org/1999/xlink" version="1.1">
    <rect x="0" y="0" width="540" height="960" fill="#5301ba"></rect>
    <path
        d="M0 384L22.5 381.5C45 379 90 374 135 370.5C180 367 225 365 270 380.7C315 396.3 360 429.7 405 431C450 432.3 495 401.7 517.5 386.3L540 371L540 961L517.5 961C495 961 450 961 405 961C360 961 315 961 270 961C225 961 180 961 135 961C90 961 45 961 22.5 961L0 961Z"
        fill="#a667ff"></path>
    <path
        d="M0 474L22.5 470.8C45 467.7 90 461.3 135 463.2C180 465 225 475 270 481.2C315 487.3 360 489.7 405 489.3C450 489 495 486 517.5 484.5L540 483L540 961L517.5 961C495 961 450 961 405 961C360 961 315 961 270 961C225 961 180 961 135 961C90 961 45 961 22.5 961L0 961Z"
        fill="#9d59ff"></path>
    <path
        d="M0 601L22.5 598C45 595 90 589 135 590C180 591 225 599 270 606.2C315 613.3 360 619.7 405 623.2C450 626.7 495 627.3 517.5 627.7L540 628L540 961L517.5 961C495 961 450 961 405 961C360 961 315 961 270 961C225 961 180 961 135 961C90 961 45 961 22.5 961L0 961Z"
        fill="#934aff"></path>
    <path
        d="M0 707L22.5 685.3C45 663.7 90 620.3 135 614.2C180 608 225 639 270 644.7C315 650.3 360 630.7 405 638.7C450 646.7 495 682.3 517.5 700.2L540 718L540 961L517.5 961C495 961 450 961 405 961C360 961 315 961 270 961C225 961 180 961 135 961C90 961 45 961 22.5 961L0 961Z"
        fill="#8939ff"></path>
    <path
        d="M0 781L22.5 773.8C45 766.7 90 752.3 135 752.8C180 753.3 225 768.7 270 778.2C315 787.7 360 791.3 405 791.8C450 792.3 495 789.7 517.5 788.3L540 787L540 961L517.5 961C495 961 450 961 405 961C360 961 315 961 270 961C225 961 180 961 135 961C90 961 45 961 22.5 961L0 961Z"
        fill="#7d25ff"></path>
    <path
        d="M0 846L22.5 838.2C45 830.3 90 814.7 135 805.7C180 796.7 225 794.3 270 810C315 825.7 360 859.3 405 856.5C450 853.7 495 814.3 517.5 794.7L540 775L540 961L517.5 961C495 961 450 961 405 961C360 961 315 961 270 961C225 961 180 961 135 961C90 961 45 961 22.5 961L0 961Z"
        fill="#7000ff"></path>
</svg>